<svg version="1.1" id="el_3Tu7mw8b3En" xmlns="http://www.w3.org/2000/svg" xmlns:xlink="http://www.w3.org/1999/xlink" x="0px" y="0px" viewBox="0 0 503 160" style="enable-background:new 0 0 503.7 160.8;">
    <style>
        @-webkit-keyframes el_kVfSVYDvhaW_Dik9-zmqM_Animation{20%{-webkit-transform: scale(0, 0);transform: scale(0, 0);}33.33%{-webkit-transform: scale(1, 1);transform: scale(1, 1);}0%{-webkit-transform: scale(0, 0);transform: scale(0, 0);}100%{-webkit-transform: scale(1, 1);transform: scale(1, 1);}}@keyframes el_kVfSVYDvhaW_Dik9-zmqM_Animation{20%{-webkit-transform: scale(0, 0);transform: scale(0, 0);}33.33%{-webkit-transform: scale(1, 1);transform: scale(1, 1);}0%{-webkit-transform: scale(0, 0);transform: scale(0, 0);}100%{-webkit-transform: scale(1, 1);transform: scale(1, 1);}}@-webkit-keyframes el_kVfSVYDvhaW_pSUy2keMb_Animation{36.67%{-webkit-transform: rotate(0deg);transform: rotate(0deg);}51.11%{-webkit-transform: rotate(0deg);transform: rotate(0deg);}53.33%{-webkit-transform: rotate(10deg);transform: rotate(10deg);}55.56%{-webkit-transform: rotate(0deg);transform: rotate(0deg);}57.78%{-webkit-transform: rotate(5deg);transform: rotate(5deg);}60%{-webkit-transform: rotate(0deg);transform: rotate(0deg);}0%{-webkit-transform: rotate(0deg);transform: rotate(0deg);}100%{-webkit-transform: rotate(0deg);transform: rotate(0deg);}}@keyframes el_kVfSVYDvhaW_pSUy2keMb_Animation{36.67%{-webkit-transform: rotate(0deg);transform: rotate(0deg);}51.11%{-webkit-transform: rotate(0deg);transform: rotate(0deg);}53.33%{-webkit-transform: rotate(10deg);transform: rotate(10deg);}55.56%{-webkit-transform: rotate(0deg);transform: rotate(0deg);}57.78%{-webkit-transform: rotate(5deg);transform: rotate(5deg);}60%{-webkit-transform: rotate(0deg);transform: rotate(0deg);}0%{-webkit-transform: rotate(0deg);transform: rotate(0deg);}100%{-webkit-transform: rotate(0deg);transform: rotate(0deg);}}@-webkit-keyframes el_TeiyxFafrLv_qpVoZBps3_Animation{20%{-webkit-transform: translate(150px, 0px);transform: translate(150px, 0px);}32.22%{-webkit-transform: translate(0px, 0px);transform: translate(0px, 0px);}34.44%{-webkit-transform: translate(10px, 0px);transform: translate(10px, 0px);}36.67%{-webkit-transform: translate(0px, 0px);transform: translate(0px, 0px);}38.89%{-webkit-transform: translate(5px, 0px);transform: translate(5px, 0px);}41.11%{-webkit-transform: translate(0px, 0px);transform: translate(0px, 0px);}0%{-webkit-transform: translate(150px, 0px);transform: translate(150px, 0px);}100%{-webkit-transform: translate(0px, 0px);transform: translate(0px, 0px);}}@keyframes el_TeiyxFafrLv_qpVoZBps3_Animation{20%{-webkit-transform: translate(150px, 0px);transform: translate(150px, 0px);}32.22%{-webkit-transform: translate(0px, 0px);transform: translate(0px, 0px);}34.44%{-webkit-transform: translate(10px, 0px);transform: translate(10px, 0px);}36.67%{-webkit-transform: translate(0px, 0px);transform: translate(0px, 0px);}38.89%{-webkit-transform: translate(5px, 0px);transform: translate(5px, 0px);}41.11%{-webkit-transform: translate(0px, 0px);transform: translate(0px, 0px);}0%{-webkit-transform: translate(150px, 0px);transform: translate(150px, 0px);}100%{-webkit-transform: translate(0px, 0px);transform: translate(0px, 0px);}}@-webkit-keyframes el_ZNcM5as0t0-_p6M4uQyyN_Animation{12.22%{-webkit-transform: translate(0px, -200px);transform: translate(0px, -200px);}24.44%{-webkit-transform: translate(0px, 0px);transform: translate(0px, 0px);}0%{-webkit-transform: translate(0px, -200px);transform: translate(0px, -200px);}100%{-webkit-transform: translate(0px, 0px);transform: translate(0px, 0px);}}@keyframes el_ZNcM5as0t0-_p6M4uQyyN_Animation{12.22%{-webkit-transform: translate(0px, -200px);transform: translate(0px, -200px);}24.44%{-webkit-transform: translate(0px, 0px);transform: translate(0px, 0px);}0%{-webkit-transform: translate(0px, -200px);transform: translate(0px, -200px);}100%{-webkit-transform: translate(0px, 0px);transform: translate(0px, 0px);}}@-webkit-keyframes el_SB29l621o-W_Animation{0%{opacity: 0;}17.78%{opacity: 1;}100%{opacity: 1;}}@keyframes el_SB29l621o-W_Animation{0%{opacity: 0;}17.78%{opacity: 1;}100%{opacity: 1;}}@-webkit-keyframes el_4fx9NgrjIh1_Animation{0%{opacity: 0;}17.78%{opacity: 1;}100%{opacity: 1;}}@keyframes el_4fx9NgrjIh1_Animation{0%{opacity: 0;}17.78%{opacity: 1;}100%{opacity: 1;}}@-webkit-keyframes el_N2RAr_20enD_Animation{0%{opacity: 0.5;}26.67%{opacity: 1;}100%{opacity: 1;}}@keyframes el_N2RAr_20enD_Animation{0%{opacity: 0.5;}26.67%{opacity: 1;}100%{opacity: 1;}}@-webkit-keyframes el_N2RAr_20enD_8wsUZX0ok_Animation{0%{-webkit-transform: translate(0px, 150px);transform: translate(0px, 150px);}24.44%{-webkit-transform: translate(0px, -10px);transform: translate(0px, -10px);}26.67%{-webkit-transform: translate(0px, 0px);transform: translate(0px, 0px);}28.89%{-webkit-transform: translate(0px, -5px);transform: translate(0px, -5px);}30%{-webkit-transform: translate(0px, 0px);transform: translate(0px, 0px);}100%{-webkit-transform: translate(0px, 0px);transform: translate(0px, 0px);}}@keyframes el_N2RAr_20enD_8wsUZX0ok_Animation{0%{-webkit-transform: translate(0px, 150px);transform: translate(0px, 150px);}24.44%{-webkit-transform: translate(0px, -10px);transform: translate(0px, -10px);}26.67%{-webkit-transform: translate(0px, 0px);transform: translate(0px, 0px);}28.89%{-webkit-transform: translate(0px, -5px);transform: translate(0px, -5px);}30%{-webkit-transform: translate(0px, 0px);transform: translate(0px, 0px);}100%{-webkit-transform: translate(0px, 0px);transform: translate(0px, 0px);}}#el_3Tu7mw8b3En *{-webkit-animation-duration: 3s;animation-duration: 3s;-webkit-animation-play-state: running;animation-play-state: running;-webkit-animation-timing-function: cubic-bezier(0, 0, 1, 1);animation-timing-function: cubic-bezier(0, 0, 1, 1);}#el_N2RAr_20enD{fill: #FF6600;opacity: 0.5;}#el_3Tu7mw8b3En:hover #el_N2RAr_20enD{-webkit-animation-name: el_N2RAr_20enD_Animation;animation-name: el_N2RAr_20enD_Animation;}#el_4fx9NgrjIh1{fill: #FF6600;-webkit-animation-timing-function: cubic-bezier(0.42, 0, 0.58, 1);animation-timing-function: cubic-bezier(0.42, 0, 0.58, 1);opacity: 0;}#el_3Tu7mw8b3En:hover #el_4fx9NgrjIh1{-webkit-animation-name: el_4fx9NgrjIh1_Animation;animation-name: el_4fx9NgrjIh1_Animation;}#el_SB29l621o-W{fill: #FF6600;-webkit-animation-timing-function: cubic-bezier(0.42, 0, 0.58, 1);animation-timing-function: cubic-bezier(0.42, 0, 0.58, 1);opacity: 0;}#el_3Tu7mw8b3En:hover #el_SB29l621o-W{-webkit-animation-name: el_SB29l621o-W_Animation;animation-name: el_SB29l621o-W_Animation;}#el_gU03H8XYfcS{fill: #FF6600;}#el_ZNcM5as0t0-{fill: #FF6600;}#el_TeiyxFafrLv{fill: #FF6600;}#el_wVdYyXkJaBp{fill: #FF6900;}#el_Mba_x4_pdU5{fill: #F0F0F0;}#el_tDAZr38UFAG{fill: #FF6900;}#el_e2kgidKDb23{fill: #F0F0F0;}#el_j_YT7YierPd{fill: #23201E;}#el_MAPOYedynS4{fill: #23201E;}#el_jNU4ZLJA_m5{fill: #F0F0F0;}#el_Vf4XS8pkAdF{fill: #F0F0F0;}#el_-igRFSg5fJ-{fill: #23201E;}#el_PQUB4ApKDQD{fill: #F0F0F0;}#el_N2RAr_20enD_8wsUZX0ok{-webkit-animation-timing-function: cubic-bezier(0.42, 0, 0.58, 1);animation-timing-function: cubic-bezier(0.42, 0, 0.58, 1);-webkit-transform-origin: 50% 50%;transform-origin: 50% 50%;transform-box: fill-box;-webkit-transform: translate(0px, 150px);transform: translate(0px, 150px);}#el_3Tu7mw8b3En:hover #el_N2RAr_20enD_8wsUZX0ok{-webkit-animation-name: el_N2RAr_20enD_8wsUZX0ok_Animation;animation-name: el_N2RAr_20enD_8wsUZX0ok_Animation;}#el_ZNcM5as0t0-_p6M4uQyyN{-webkit-transform-origin: 50% 50%;transform-origin: 50% 50%;transform-box: fill-box;-webkit-transform: translate(0px, -200px);transform: translate(0px, -200px);}#el_3Tu7mw8b3En:hover #el_ZNcM5as0t0-_p6M4uQyyN{-webkit-animation-name: el_ZNcM5as0t0-_p6M4uQyyN_Animation;animation-name: el_ZNcM5as0t0-_p6M4uQyyN_Animation;}#el_TeiyxFafrLv_qpVoZBps3{-webkit-animation-timing-function: cubic-bezier(0.42, 0, 0.58, 1);animation-timing-function: cubic-bezier(0.42, 0, 0.58, 1);-webkit-transform-origin: 50% 50%;transform-origin: 50% 50%;transform-box: fill-box;-webkit-transform: translate(150px, 0px);transform: translate(150px, 0px);}#el_3Tu7mw8b3En:hover #el_TeiyxFafrLv_qpVoZBps3{-webkit-animation-name: el_TeiyxFafrLv_qpVoZBps3_Animation;animation-name: el_TeiyxFafrLv_qpVoZBps3_Animation;}#el_kVfSVYDvhaW_pSUy2keMb{-webkit-animation-timing-function: cubic-bezier(0.42, 0, 1, 1);animation-timing-function: cubic-bezier(0.42, 0, 1, 1);-webkit-transform-origin: 50% 50%;transform-origin: 50% 50%;transform-box: fill-box;-webkit-transform: rotate(0deg);transform: rotate(0deg);}#el_3Tu7mw8b3En:hover #el_kVfSVYDvhaW_pSUy2keMb{-webkit-animation-name: el_kVfSVYDvhaW_pSUy2keMb_Animation;animation-name: el_kVfSVYDvhaW_pSUy2keMb_Animation;}#el_kVfSVYDvhaW_Dik9-zmqM{-webkit-transform-origin: 50% 50%;transform-origin: 50% 50%;transform-box: fill-box;-webkit-transform: scale(0, 0);transform: scale(0, 0);}#el_3Tu7mw8b3En:hover #el_kVfSVYDvhaW_Dik9-zmqM{-webkit-animation-name: el_kVfSVYDvhaW_Dik9-zmqM_Animation;animation-name: el_kVfSVYDvhaW_Dik9-zmqM_Animation;}
    </style>
    <g id="el_2ZT05yoWyYo">
        <g id="el_N2RAr_20enD_8wsUZX0ok" data-animator-group="true" data-animator-type="0">
            <path d="M56.9,46.2v20.7c-20.1,0.2-36.3,16.7-36.3,36.9v56.9l0,0C9.2,160.8,0,152.4,0,141l0-94.8h20.6v13.4&#10;&#9;&#9;C30.4,51.3,43.1,46.3,56.9,46.2z" id="el_N2RAr_20enD"/>
        </g>
        <path d="M384.2,46.2v114.6h-20.6v-13.3c-17.1,14.3-42.8,18.8-68.3,4.7c-7.4-4.1-13.5-10.4-17.6-17.8&#10;&#9;&#9;c-23.7-43.9,7.6-88.2,49.1-88.2c14,0,26.8,5,36.7,13.3v0c0-7.3,5.9-13.3,13.3-13.3H384.2z" id="el_4fx9NgrjIh1"/>
        <path d="M290.2,104.2c-0.4,29.9-24.1,54.7-53.9,56.4c-15.3,0.9-29.3-4.2-40-13.2l0,0c0,7.3-5.9,13.3-13.3,13.3h-7.3V0&#10;&#9;&#9;h0c11.4,0,20.6,9.2,20.6,20.6v38.8c9.9-8.3,22.7-13.3,36.7-13.3C264.8,46.2,290.6,72.2,290.2,104.2z" id="el_SB29l621o-W"/>
        <circle cx="232.9" cy="103.5" r="36.7" id="el_gU03H8XYfcS"/>
        <g id="el_ZNcM5as0t0-_p6M4uQyyN" data-animator-group="true" data-animator-type="0">
            <path d="M171.5,47v56.5c0,17.7-8,33.5-20.6,44c-9.9,8.3-22.7,13.3-36.7,13.3s-26.8-5-36.7-13.3&#10;&#9;&#9;c-12.6-10.5-20.6-26.3-20.6-44V46.2h20.6v56.6c0,20.1,15.8,36.9,35.9,37.4c20.6,0.4,37.5-16.1,37.5-36.7V47H171.5z" id="el_ZNcM5as0t0-"/>
        </g>
        <g id="el_TeiyxFafrLv_qpVoZBps3" data-animator-group="true" data-animator-type="0">
            <path d="M503.7,103.5V141c0,11.4-9.2,19.8-20.6,19.8v0.8v-57.4c0-20.1-15.8-36.9-35.9-37.4&#10;&#9;&#9;c-20.6-0.4-37.5,16.1-37.5,36.7v57.3h-20.6V0h0c11.4,0,20.6,9.2,20.6,20.6v38.8c9.9-8.3,22.7-13.3,36.7-13.3s26.8,5,36.7,13.3&#10;&#9;&#9;C495.7,70,503.7,85.8,503.7,103.5z" id="el_TeiyxFafrLv"/>
        </g>
    </g>
    <g id="el_kVfSVYDvhaW_pSUy2keMb" data-animator-group="true" data-animator-type="1">
        <g id="el_kVfSVYDvhaW_Dik9-zmqM" data-animator-group="true" data-animator-type="2">
            <g id="el_kVfSVYDvhaW">
                <path d="M235.3,103.3v0.4c0,0-0.1,0-0.1,0c-0.4,0.2-0.8,0.3-1.2,0.5c0,0,0,0,0,0c0,0,0,0,0,0c0,0,0,0,0,0&#10;&#9;&#9;c-11.4,5.1-19.8,15.9-21.4,29.2c0,0.4-0.1,0.7-0.1,1.1c-9.8-7.6-15.6-20.1-14-33.3c0.2-1.3,0.4-2.7,0.7-4c1.2-5.1,3.4-9.7,6.3-13.7&#10;&#9;&#9;c1.9-2.5,4.1-4.8,6.6-6.8c1.9-1.6,4.1-2.9,6.3-4c0,0,0,0,0.1,0v0l-0.1,0.7l-0.7,5.3l-1,7.5l0,0.1l17.9,16.2c0,0,0,0,0,0&#10;&#9;&#9;L235.3,103.3z" id="el_wVdYyXkJaBp"/>
                <path d="M271.4,108.7L271.4,108.7c0,0.4-0.1,0.7-0.1,1.1c-2.4,20.1-20.6,34.5-40.7,32.1c-6.9-0.8-13.1-3.5-18.1-7.4&#10;&#9;&#9;c0-0.4,0.1-0.7,0.1-1.1c1.6-13.3,10-24.1,21.4-29.2c0,0,0,0,0,0c0,0,0,0,0,0c0,0,0,0,0,0c0.4-0.2,0.8-0.4,1.2-0.5c0,0,0,0,0.1,0&#10;&#9;&#9;c0.9-0.3,1.7-0.7,2.6-0.9c10.2-4.6,18.1-13.8,20.7-25.2c6.1,5.2,10.5,12.4,12.2,20.4C271.5,101.4,271.8,105,271.4,108.7z" id="el_Mba_x4_pdU5"/>
                <g id="el_cF_lJ1U2Z7E">
                    <path d="M254,86.3c-6.8,2.9-12.6,7.7-16.6,13.9h-4.3c-3.9-6.1-9.7-11-16.5-13.9l1-7.5l0.7-5.3l0.1-0.7v0h0&#10;&#9;&#9;&#9;c0.2-0.1,0.4-0.2,0.7-0.3c0,0,0,0,0.1,0c2.6-1.3,5.4-2.2,8.3-2.8c0,0,0,0,0.1,0c2.5-0.5,5.1-0.8,7.8-0.7c2.7,0,5.3,0.2,7.8,0.7&#10;&#9;&#9;&#9;c0,0,0,0,0.1,0c2.9,0.6,5.7,1.6,8.3,2.8c0,0,0,0,0.1,0c0.2,0.1,0.4,0.2,0.7,0.3c0,0,0,0,0,0l0.1,0.7L254,86.3z" id="el_tDAZr38UFAG"/>
                </g>
                <g id="el_fFw4DLd4IGQ">
                    <path d="M252.3,72.7C252.3,72.7,252.2,72.7,252.3,72.7c-0.3-0.2-0.5-0.3-0.8-0.4c0,0,0,0-0.1,0&#10;&#9;&#9;&#9;c-2.6-1.3-5.4-2.2-8.3-2.8l5.9-5.6C249.1,63.9,251.7,67.3,252.3,72.7z" id="el_e2kgidKDb23"/>
                </g>
                <g id="el_xNm3TbiGIof">
                    <path d="M222.8,82.3c1.2-0.5,2.6-0.4,3.9,0c1.3,0.5,2.4,1.3,3.2,2.4c0.9,1,1.4,2.3,1.7,3.5c0.1,0.6,0.2,1.3,0.3,1.9&#10;&#9;&#9;&#9;c0,0.6,0,1.3-0.1,1.9c-0.4-0.5-0.6-1.1-0.9-1.6c-0.3-0.5-0.6-1-0.8-1.6c-0.6-1-1.1-2-1.8-2.8C226.9,84.3,225.2,83,222.8,82.3z" id="el_j_YT7YierPd"/>
                </g>
                <g id="el_btuSqbIOw_w">
                    <path d="M247.8,82.3c-2.4,0.7-4.2,2-5.5,3.7c-0.7,0.8-1.2,1.8-1.8,2.8c-0.2,0.5-0.6,1-0.8,1.6&#10;&#9;&#9;&#9;c-0.3,0.5-0.5,1.1-0.9,1.6c-0.1-0.6-0.1-1.3-0.1-1.9c0.1-0.6,0.2-1.3,0.3-1.9c0.4-1.2,0.9-2.5,1.7-3.5c0.8-1,1.9-1.9,3.2-2.4&#10;&#9;&#9;&#9;C245.2,81.9,246.6,81.8,247.8,82.3z" id="el_MAPOYedynS4"/>
                </g>
                <path d="M234.6,102.6l-17.9-16.2l0-0.1c6.9,2.9,12.6,7.8,16.5,13.9c0.1,0.2,0.3,0.4,0.4,0.6l0,0&#10;&#9;&#9;C233.9,101.4,234.3,102,234.6,102.6z" id="el_jNU4ZLJA_m5"/>
                <path d="M254,86.4l-18.1,16.4c0.3-0.6,0.6-1.2,1-1.7c0.2-0.3,0.3-0.5,0.5-0.8C241.4,94,247.2,89.1,254,86.4L254,86.4z" id="el_Vf4XS8pkAdF"/>
                <path d="M237.4,100.2c-0.2,0.3-0.3,0.5-0.5,0.8c-0.3,0.6-0.7,1.1-1,1.7l-0.6,0.5l-0.7-0.7c0,0,0,0,0,0&#10;&#9;&#9;c-0.3-0.6-0.6-1.2-1-1.7l0,0c-0.1-0.2-0.3-0.4-0.4-0.6H237.4z" id="el_-igRFSg5fJ-"/>
                <path d="M227.5,69.5c-2.9,0.6-5.7,1.6-8.3,2.8c0,0,0,0-0.1,0c-0.2,0.1-0.5,0.2-0.7,0.3c0,0,0,0-0.1,0&#10;&#9;&#9;c0.6-5.4,3.2-8.8,3.2-8.8L227.5,69.5z" id="el_PQUB4ApKDQD"/>
            </g>
        </g>
    </g>
    <script>
        (function(){var a=document.querySelector('#el_3Tu7mw8b3En'),b=a.querySelectorAll('style'),c=function(d){b.forEach(function(f){var g=f.textContent;g&amp;&amp;(f.textContent=g.replace(/transform-box:[^;\r\n]*/gi,'transform-box: '+d))})};c('initial'),window.requestAnimationFrame(function(){return c('fill-box')})})();
    </script>
</svg>